<?xml version="1.0" encoding="UTF-8" standalone="no"?>
<!-- Created with Inkscape (http://www.inkscape.org/) -->

<svg
   xmlns:dc="http://purl.org/dc/elements/1.1/"
   xmlns:cc="http://creativecommons.org/ns#"
   xmlns:rdf="http://www.w3.org/1999/02/22-rdf-syntax-ns#"
   xmlns:svg="http://www.w3.org/2000/svg"
   xmlns="http://www.w3.org/2000/svg"
   xmlns:sodipodi="http://sodipodi.sourceforge.net/DTD/sodipodi-0.dtd"
   xmlns:inkscape="http://www.inkscape.org/namespaces/inkscape"
   width="731.02716"
   height="383.68073"
   id="svg2"
   version="1.1"
   inkscape:version="0.48.4 r9939"
   sodipodi:docname="logo.svg">
  <defs
     id="defs4" />
  <sodipodi:namedview
     id="base"
     pagecolor="#ffffff"
     bordercolor="#666666"
     borderopacity="1.0"
     inkscape:pageopacity="0.0"
     inkscape:pageshadow="2"
     inkscape:zoom="0.35"
     inkscape:cx="378.59626"
     inkscape:cy="-226.24728"
     inkscape:document-units="px"
     inkscape:current-layer="layer1"
     showgrid="false"
     inkscape:window-width="1366"
     inkscape:window-height="721"
     inkscape:window-x="0"
     inkscape:window-y="0"
     inkscape:window-maximized="1"
     fit-margin-top="15"
     fit-margin-left="5"
     fit-margin-right="5"
     fit-margin-bottom="5" />
  <metadata
     id="metadata7">
    <rdf:RDF>
      <cc:Work
         rdf:about="">
        <dc:format>image/svg+xml</dc:format>
        <dc:type
           rdf:resource="http://purl.org/dc/dcmitype/StillImage" />
      </cc:Work>
    </rdf:RDF>
  </metadata>
  <g
     inkscape:label="Layer 1"
     inkscape:groupmode="layer"
     id="layer1"
     transform="translate(-2.118028,71.851548)">
    <g
       transform="matrix(4.3556659,0,0,4.3556659,-347.44951,-1544.857)"
       style="font-size:40px;font-style:normal;font-variant:normal;font-weight:bold;font-stretch:normal;line-height:85.00000238%;letter-spacing:0px;word-spacing:0px;fill:#000000;fill-opacity:1;stroke:none;font-family:FreeSerif;-inkscape-font-specification:FreeSerif Bold"
       id="flowRoot2985">
      <path
         d="m 135.27575,341.62525 0,1.4 c -1.86672,0.1867 -3.15472,1.38137 -3.864,3.584 l -11.2,33.712 -1.512,0 -9.576,-26.712 -10.416,26.712 -1.568,0 -11.872,-33.712 c -0.485337,-1.3813 -0.952003,-2.2773 -1.4,-2.688 -0.448003,-0.41063 -1.269335,-0.7093 -2.464,-0.896 l 0,-1.4 16.464,0 0,1.4 c -1.456016,0.11204 -2.426681,0.33604 -2.912,0.672 -0.448014,0.2987 -0.672013,0.8587 -0.672,1.68 -1.3e-5,0.4107 0.130653,1.0267 0.392,1.848 l 6.72,20.384 6.608,-17.248 -1.96,-5.376 c -0.56002,-1.19463 -1.90402,-1.84796 -4.032,-1.96 l 0,-1.4 17.472,0 0,1.4 c -0.22404,0.0374 -0.4667,0.056 -0.728,0.056 -1.23204,0.0747 -2.0907,0.26137 -2.576,0.56 -0.48537,0.2987 -0.72803,0.78404 -0.728,1.456 -3e-5,0.4107 0.2613,1.45603 0.784,3.136 l 6.048,18.816 6.272,-19.208 c 0.26129,-0.74663 0.39195,-1.53063 0.392,-2.352 -5e-5,-0.85863 -0.28005,-1.45596 -0.84,-1.792 -0.52271,-0.3733 -1.53071,-0.5973 -3.024,-0.672 l 0,-1.4 10.192,0"
         style="font-size:56px;text-align:center;line-height:85.00000238%;text-anchor:middle;font-family:FreeSerif;-inkscape-font-specification:FreeSerif Bold"
         id="path3059"
         inkscape:connector-curvature="0" />
      <path
         d="m 142.85937,370.74525 c 1.30666,10e-6 2.42666,0.48534 3.36001,1.456 0.93332,0.93334 1.39998,2.05334 1.39999,3.36 -1e-5,1.30667 -0.46667,2.408 -1.39999,3.304 -0.93335,0.896 -2.07201,1.344 -3.41601,1.344 -1.30667,0 -2.408,-0.448 -3.304,-1.344 -0.896,-0.93333 -1.344,-2.072 -1.344,-3.416 0,-1.26933 0.46667,-2.37066 1.4,-3.304 0.93333,-0.93332 2.03467,-1.39999 3.304,-1.4"
         style="font-size:56px;text-align:center;line-height:85.00000238%;text-anchor:middle;font-family:FreeSerif;-inkscape-font-specification:FreeSerif Bold"
         id="path3061"
         inkscape:connector-curvature="0" />
      <path
         d="m 162.96338,341.62525 19.54399,24.024 0,-17.08 c -3e-5,-1.97863 -0.35469,-3.3413 -1.064,-4.088 -0.70936,-0.78396 -2.09069,-1.2693 -4.144,-1.456 l 0,-1.4 12.04,0 0,1.4 c -1.82937,0.2987 -3.02403,0.72804 -3.58399,1.288 -0.52271,0.5227 -0.78404,1.5867 -0.78401,3.192 l 0,32.984 -1.568,0 -25.032,-30.464 0,22.512 c 0,1.97867 0.336,3.34134 1.008,4.088 0.70933,0.70934 2.14666,1.19467 4.312,1.456 l 0,1.4 -12.712,0 0,-1.4 c 2.05334,-0.26133 3.37867,-0.672 3.976,-1.232 0.63467,-0.56 0.952,-1.64266 0.952,-3.248 l 0,-26.544 c -1.344,-1.6053 -2.33333,-2.6693 -2.968,-3.192 -0.63466,-0.55996 -1.232,-0.83996 -1.792,-0.84 l 0,-1.4 11.81601,0"
         style="font-size:56px;text-align:center;line-height:85.00000238%;text-anchor:middle;font-family:FreeSerif;-inkscape-font-specification:FreeSerif Bold"
         id="path3063"
         inkscape:connector-curvature="0" />
      <path
         d="m 197.4375,370.74525 c 1.30666,10e-6 2.42666,0.48534 3.36,1.456 0.93332,0.93334 1.39999,2.05334 1.4,3.36 -1e-5,1.30667 -0.46668,2.408 -1.4,3.304 -0.93334,0.896 -2.07201,1.344 -3.416,1.344 -1.30667,0 -2.408,-0.448 -3.304,-1.344 -0.896,-0.93333 -1.344,-2.072 -1.344,-3.416 0,-1.26933 0.46666,-2.37066 1.4,-3.304 0.93333,-0.93332 2.03466,-1.39999 3.304,-1.4"
         style="font-size:56px;text-align:center;line-height:85.00000238%;text-anchor:middle;font-family:FreeSerif;-inkscape-font-specification:FreeSerif Bold"
         id="path3065"
         inkscape:connector-curvature="0" />
      <path
         d="m 233.6695,344.87325 c -3e-5,-0.7093 -0.31736,-1.1573 -0.952,-1.344 -0.59736,-0.22396 -1.86669,-0.39196 -3.808,-0.504 l 0,-1.4 16.184,0 0,1.4 c -2.72537,0.22404 -5.09604,1.04537 -7.112,2.464 -1.9787,1.4187 -5.60003,4.8347 -10.864,10.248 l 17.08,21.168 c 0.63463,0.74667 1.54929,1.13867 2.744,1.176 l 0,1.4 -18.816,0 0,-1.4 c 0.52264,-0.0373 1.11998,-0.056 1.792,-0.056 1.75464,-0.112 2.63197,-0.48533 2.632,-1.12 -3e-5,-0.52266 -0.44803,-1.344 -1.344,-2.464 l -10.192,-12.712 -1.512,1.4 0,10.976 c -2e-5,1.38134 0.31732,2.33334 0.952,2.856 0.63465,0.48534 1.95998,0.85867 3.976,1.12 l 0,1.4 -18.872,0 0,-1.4 c 2.016,-0.224 3.32266,-0.57866 3.92,-1.064 0.63466,-0.52266 0.95199,-1.49333 0.952,-2.912 l 0,-27.104 c -1e-5,-1.45597 -0.33601,-2.4453 -1.008,-2.968 -0.63467,-0.55996 -1.92267,-0.89596 -3.864,-1.008 l 0,-1.4 18.928,0 0,1.4 c -2.05335,0.14937 -3.39735,0.56004 -4.032,1.232 -0.63468,0.6347 -0.95202,1.94137 -0.952,3.92 l 0,11.984 12.152,-12.208 c 0.85864,-0.85863 1.39997,-1.47463 1.624,-1.848 0.2613,-0.3733 0.39197,-0.78396 0.392,-1.232"
         style="font-size:56px;text-align:center;line-height:85.00000238%;text-anchor:middle;font-family:FreeSerif;-inkscape-font-specification:FreeSerif Bold"
         id="path3067"
         inkscape:connector-curvature="0" />
      <path
         d="m 102.71375,413.24126 0,-19.72 c 0,-0.90665 -0.24,-1.54664 -0.72,-1.92 -0.45334,-0.37331 -1.32,-0.62664 -2.6,-0.76 l 0,-1 12.2,0 c 4.61332,2e-5 8.23998,1.17336 10.88,3.52 2.63997,2.34668 3.95997,5.58668 3.96,9.72 -3e-5,4.13334 -1.32003,7.46667 -3.96,10 -2.64002,2.53333 -6.12002,3.8 -10.44,3.8 l -12.64,0 0,-1 c 1.14666,-0.0267 1.98666,-0.25334 2.52,-0.68 0.53333,-0.42667 0.8,-1.08 0.8,-1.96 m 16.76,-9.56 c -2e-5,-2.34665 -0.24002,-4.37332 -0.72,-6.08 -0.48002,-1.70665 -1.12002,-2.99998 -1.92,-3.88 -0.80002,-0.87998 -1.64002,-1.51998 -2.52,-1.92 -0.85335,-0.39998 -1.77335,-0.59998 -2.76,-0.6 -1.57334,2e-5 -2.36001,0.46669 -2.36,1.4 l 0,20.56 c -10e-6,0.90667 0.15999,1.52 0.48,1.84 0.31999,0.32 0.93332,0.48 1.84,0.48 5.30665,0 7.95998,-3.93333 7.96,-11.8"
         style="text-align:center;line-height:85.00000238%;text-anchor:middle;font-family:FreeSerif;-inkscape-font-specification:FreeSerif Bold"
         id="path3069"
         inkscape:connector-curvature="0" />
      <path
         d="m 134.5725,407.08126 c 0.0267,0.72001 0.08,1.37334 0.16,1.96 0.08,0.56 0.21333,1.21334 0.4,1.96 0.21333,0.72 0.47999,1.32 0.8,1.8 0.34666,0.48 0.79999,0.89333 1.36,1.24 0.58666,0.34667 1.26666,0.52 2.04,0.52 0.85332,0 1.62665,-0.2 2.32,-0.6 0.69332,-0.4 1.43998,-1.09333 2.24,-2.08 l 0.96,0.56 c -1.30668,1.86667 -2.53335,3.17333 -3.68,3.92 -1.12001,0.72 -2.49334,1.08 -4.12,1.08 -2.48001,0 -4.48,-0.88 -6,-2.64 -1.49334,-1.78667 -2.24,-4.13333 -2.24,-7.04 0,-2.93332 0.76,-5.29332 2.28,-7.08 1.54666,-1.81332 3.57333,-2.71998 6.08,-2.72 4.55999,2e-5 7.05332,3.04001 7.48,9.12 l -10.08,0 m 5.16,-2.08 c -0.0267,-0.85332 -0.0533,-1.50666 -0.08,-1.96 -0.0267,-0.45332 -0.0934,-0.95999 -0.2,-1.52 -0.10668,-0.58665 -0.25334,-1.01332 -0.44,-1.28 -0.16001,-0.29332 -0.40001,-0.53332 -0.72,-0.72 -0.29334,-0.21332 -0.66668,-0.31999 -1.12,-0.32 -0.98668,1e-5 -1.69334,0.46668 -2.12,1.4 -0.40001,0.93335 -0.62667,2.60001 -0.68,5 l 5.36,0 0,-0.6"
         style="text-align:center;line-height:85.00000238%;text-anchor:middle;font-family:FreeSerif;-inkscape-font-specification:FreeSerif Bold"
         id="path3071"
         inkscape:connector-curvature="0" />
      <path
         d="m 152.91625,397.96126 c 0.74666,2e-5 1.61332,0.14668 2.6,0.44 0.98666,0.29335 1.58665,0.44001 1.8,0.44 0.42665,1e-5 0.74665,-0.26665 0.96,-0.8 l 0.88,0 0,5.8 -1,0 c -1.04001,-3.03999 -2.66668,-4.55999 -4.88,-4.56 -0.74667,1e-5 -1.37334,0.22668 -1.88,0.68 -0.50667,0.42668 -0.76001,0.97335 -0.76,1.64 -1e-5,0.61334 0.22666,1.17334 0.68,1.68 0.47999,0.48001 1.06666,0.86668 1.76,1.16 0.69332,0.29334 1.43999,0.65334 2.24,1.08 0.79999,0.40001 1.54665,0.82667 2.24,1.28 0.69332,0.42667 1.26665,1.04001 1.72,1.84 0.47999,0.77334 0.71999,1.68 0.72,2.72 -1e-5,1.78667 -0.57335,3.25333 -1.72,4.4 -1.14668,1.12 -2.62668,1.68 -4.44,1.68 -1.09334,0 -2.20001,-0.18667 -3.32,-0.56 -1.12,-0.4 -1.76,-0.6 -1.92,-0.6 -0.29334,0 -0.64,0.37333 -1.04,1.12 l -1,0 0,-6.6 1.12,0 c 0.85333,3.52 2.67999,5.28 5.48,5.28 0.90666,0 1.62666,-0.24 2.16,-0.72 0.55999,-0.48 0.83999,-1.10667 0.84,-1.88 -1e-5,-0.69333 -0.33334,-1.30667 -1,-1.84 -0.64001,-0.53333 -1.42668,-1.01333 -2.36,-1.44 -0.93334,-0.42666 -1.86667,-0.88 -2.8,-1.36 -0.93334,-0.50666 -1.73334,-1.18666 -2.4,-2.04 -0.64,-0.85333 -0.96,-1.85332 -0.96,-3 0,-1.67999 0.58666,-3.06665 1.76,-4.16 1.2,-1.11998 2.70666,-1.67998 4.52,-1.68"
         style="text-align:center;line-height:85.00000238%;text-anchor:middle;font-family:FreeSerif;-inkscape-font-specification:FreeSerif Bold"
         id="path3073"
         inkscape:connector-curvature="0" />
      <path
         d="m 169.42125,398.44126 0,15.2 c -10e-6,0.74667 0.14666,1.29333 0.44,1.64 0.29332,0.32 0.79999,0.53333 1.52,0.64 l 0,0.96 -9.64,0 0,-0.96 c 0.90666,-0.21334 1.48,-0.45334 1.72,-0.72 0.26666,-0.29333 0.4,-0.85333 0.4,-1.68 l 0,-11.76 c 0,-0.82665 -0.13334,-1.37332 -0.4,-1.64 -0.26667,-0.29332 -0.84,-0.53332 -1.72,-0.72 l 0,-0.96 7.68,0 m -5,-8.28 c 0.61333,-0.61331 1.34666,-0.91998 2.2,-0.92 0.85333,2e-5 1.57333,0.30669 2.16,0.92 0.61332,0.61336 0.91999,1.34669 0.92,2.2 -10e-6,0.88002 -0.30668,1.61335 -0.92,2.2 -0.58667,0.58669 -1.32001,0.88002 -2.2,0.88 -0.88,2e-5 -1.61334,-0.29331 -2.2,-0.88 -0.58667,-0.58665 -0.88,-1.33331 -0.88,-2.24 0,-0.85331 0.30666,-1.57331 0.92,-2.16"
         style="text-align:center;line-height:85.00000238%;text-anchor:middle;font-family:FreeSerif;-inkscape-font-specification:FreeSerif Bold"
         id="path3075"
         inkscape:connector-curvature="0" />
      <path
         d="m 178.27312,410.48126 c -3.30666,-1.38666 -4.96,-3.41333 -4.95999,-6.08 -1e-5,-1.89332 0.75999,-3.43999 2.27999,-4.64 1.52,-1.19998 3.46666,-1.79998 5.84,-1.8 1.35999,2e-5 2.85333,0.29335 4.48,0.88 l 5.2,0 0,2.12 -3.23999,0 c 1.06664,1.06668 1.59998,2.37334 1.59999,3.92 -1e-5,0.64001 -0.10668,1.28001 -0.32,1.92 -0.21335,0.61334 -0.57334,1.24001 -1.08,1.88 -0.48001,0.61334 -1.20001,1.10667 -2.16,1.48 -0.96001,0.37334 -2.09334,0.56 -3.4,0.56 l -1.8,-0.04 c -0.8,0 -1.45334,0.2 -1.96,0.6 -0.50667,0.37334 -0.76,0.86667 -0.76,1.48 0,0.56 0.26667,0.93333 0.8,1.12 0.53333,0.18667 1.6,0.28 3.2,0.28 l 2.6,0 c 2.05332,0 3.65332,0.44 4.8,1.32 1.17332,0.85333 1.75999,2.05333 1.76,3.6 -1e-5,1.97333 -0.86668,3.46666 -2.6,4.48 -1.70668,1.03999 -4.22667,1.55999 -7.56,1.56 -2.53333,-1e-5 -4.50667,-0.33334 -5.92,-1 -1.41333,-0.64001 -2.12,-1.53334 -2.12,-2.68 0,-1.62667 1.28,-2.62667 3.84,-3 -1.28,-0.45334 -2.14666,-0.90667 -2.6,-1.36 -0.45333,-0.45334 -0.68,-1.09334 -0.68,-1.92 0,-2.02667 1.58667,-3.58666 4.76,-4.68 m 6.52,8.48 -6.92,0 c -0.56,0.45333 -0.93333,0.82666 -1.12,1.12 -0.18667,0.29333 -0.28,0.65333 -0.28,1.08 0,1.78666 1.78667,2.67999 5.36,2.68 1.97333,-10e-6 3.49332,-0.25334 4.56,-0.76 1.06666,-0.48001 1.59999,-1.18667 1.6,-2.12 -1e-5,-1.33334 -1.06668,-2.00001 -3.2,-2 m -1.36,-18.52 c -0.40001,-0.82665 -1.06667,-1.23999 -2,-1.24 -0.93334,1e-5 -1.61334,0.41335 -2.04,1.24 -0.4,0.80001 -0.6,2.13334 -0.6,4 0,1.86667 0.2,3.20001 0.6,4 0.4,0.77334 1.08,1.16 2.04,1.16 0.93333,0 1.59999,-0.38666 2,-1.16 0.42666,-0.79999 0.63999,-2.13333 0.64,-4 -10e-6,-1.86666 -0.21334,-3.19999 -0.64,-4"
         style="text-align:center;line-height:85.00000238%;text-anchor:middle;font-family:FreeSerif;-inkscape-font-specification:FreeSerif Bold"
         id="path3077"
         inkscape:connector-curvature="0" />
      <path
         d="m 203.79312,400.64126 c -0.74667,1e-5 -1.50667,0.32001 -2.28,0.96 -0.77334,0.61334 -1.16,1.06668 -1.16,1.36 l 0,10.68 c 0,0.74667 0.13333,1.29333 0.4,1.64 0.29333,0.32 0.81333,0.53333 1.56001,0.64 l 0,0.96 -9.64001,0 0,-0.96 c 0.90667,-0.18667 1.48,-0.42667 1.72,-0.72 0.26667,-0.29333 0.4,-0.85333 0.4,-1.68 l 0,-11.76 c 0,-0.82665 -0.13333,-1.38665 -0.4,-1.68 -0.26666,-0.31999 -0.84,-0.54665 -1.72,-0.68 l 0,-0.96 7.64001,0 0,3 c 1.46665,-2.31999 3.37332,-3.47998 5.71999,-3.48 1.65332,2e-5 2.95999,0.52002 3.92,1.56 0.98665,1.01335 1.47999,2.37335 1.48,4.08 l 0,10.04 c -1e-5,0.85333 0.13332,1.44 0.4,1.76 0.26665,0.29333 0.78665,0.46666 1.56,0.52 l 0,0.96 -9.4,0 0,-0.96 c 0.66666,-0.08 1.14666,-0.29334 1.44,-0.64 0.29332,-0.34667 0.43999,-0.89333 0.44001,-1.64 l 0,-9.68 c -2e-5,-2.21332 -0.69335,-3.31999 -2.08001,-3.32"
         style="text-align:center;line-height:85.00000238%;text-anchor:middle;font-family:FreeSerif;-inkscape-font-specification:FreeSerif Bold"
         id="path3079"
         inkscape:connector-curvature="0" />
      <path
         d="m 221.51,397.96126 c 0.74666,2e-5 1.61332,0.14668 2.6,0.44 0.98666,0.29335 1.58665,0.44001 1.8,0.44 0.42665,1e-5 0.74665,-0.26665 0.96,-0.8 l 0.88,0 0,5.8 -1,0 c -1.04001,-3.03999 -2.66668,-4.55999 -4.88,-4.56 -0.74667,1e-5 -1.37334,0.22668 -1.88,0.68 -0.50667,0.42668 -0.76001,0.97335 -0.76,1.64 -1e-5,0.61334 0.22666,1.17334 0.68,1.68 0.47999,0.48001 1.06666,0.86668 1.76,1.16 0.69332,0.29334 1.43999,0.65334 2.24,1.08 0.79999,0.40001 1.54665,0.82667 2.24,1.28 0.69332,0.42667 1.26665,1.04001 1.72,1.84 0.47999,0.77334 0.71999,1.68 0.72,2.72 -1e-5,1.78667 -0.57335,3.25333 -1.72,4.4 -1.14668,1.12 -2.62668,1.68 -4.44,1.68 -1.09334,0 -2.20001,-0.18667 -3.32,-0.56 -1.12,-0.4 -1.76,-0.6 -1.92,-0.6 -0.29334,0 -0.64,0.37333 -1.04,1.12 l -1,0 0,-6.6 1.12,0 c 0.85333,3.52 2.67999,5.28 5.48,5.28 0.90666,0 1.62666,-0.24 2.16,-0.72 0.55999,-0.48 0.83999,-1.10667 0.84,-1.88 -1e-5,-0.69333 -0.33334,-1.30667 -1,-1.84 -0.64001,-0.53333 -1.42668,-1.01333 -2.36,-1.44 -0.93334,-0.42666 -1.86667,-0.88 -2.8,-1.36 -0.93334,-0.50666 -1.73334,-1.18666 -2.4,-2.04 -0.64,-0.85333 -0.96,-1.85332 -0.96,-3 0,-1.67999 0.58666,-3.06665 1.76,-4.16 1.2,-1.11998 2.70666,-1.67998 4.52,-1.68"
         style="text-align:center;line-height:85.00000238%;text-anchor:middle;font-family:FreeSerif;-inkscape-font-specification:FreeSerif Bold"
         id="path3081"
         inkscape:connector-curvature="0" />
    </g>
  </g>
</svg>
