<?xml version="1.0" encoding="UTF-8" standalone="no"?>
<!-- Created with Inkscape (http://www.inkscape.org/) -->

<svg
   xmlns:dc="http://purl.org/dc/elements/1.1/"
   xmlns:cc="http://creativecommons.org/ns#"
   xmlns:rdf="http://www.w3.org/1999/02/22-rdf-syntax-ns#"
   xmlns:svg="http://www.w3.org/2000/svg"
   xmlns="http://www.w3.org/2000/svg"
   xmlns:sodipodi="http://sodipodi.sourceforge.net/DTD/sodipodi-0.dtd"
   xmlns:inkscape="http://www.inkscape.org/namespaces/inkscape"
   width="780"
   height="194.54108"
   id="svg3003"
   version="1.1"
   inkscape:version="0.48.4 r9939"
   sodipodi:docname="logo.svg">
  <defs
     id="defs3005" />
  <sodipodi:namedview
     id="base"
     pagecolor="#ffffff"
     bordercolor="#666666"
     borderopacity="1.0"
     inkscape:pageopacity="0.0"
     inkscape:pageshadow="2"
     inkscape:zoom="0.63"
     inkscape:cx="243.63798"
     inkscape:cy="57.33212"
     inkscape:document-units="px"
     inkscape:current-layer="layer1"
     showgrid="false"
     inkscape:window-width="1366"
     inkscape:window-height="721"
     inkscape:window-x="0"
     inkscape:window-y="0"
     inkscape:window-maximized="1"
     fit-margin-top="15"
     fit-margin-left="15"
     fit-margin-right="15"
     fit-margin-bottom="15" />
  <metadata
     id="metadata3008">
    <rdf:RDF>
      <cc:Work
         rdf:about="">
        <dc:format>image/svg+xml</dc:format>
        <dc:type
           rdf:resource="http://purl.org/dc/dcmitype/StillImage" />
        <dc:title />
      </cc:Work>
    </rdf:RDF>
  </metadata>
  <g
     inkscape:label="Layer 1"
     inkscape:groupmode="layer"
     id="layer1"
     transform="translate(-131.36203,75.792438)">
    <g
       transform="matrix(5.5814474,0,0,5.5814474,-2407.4083,-475.31886)"
       style="font-size:40px;font-style:normal;font-variant:normal;font-weight:bold;font-stretch:normal;line-height:125%;letter-spacing:-0.40999997px;word-spacing:0px;fill:#000000;fill-opacity:1;stroke:none;font-family:Century Schoolbook L;-inkscape-font-specification:Century Schoolbook L Bold"
       id="flowRoot3011">
      <path
         d="m 485.74625,92.828625 -4.28,-14.24 c -0.2,-0.6 -0.24,-0.840001 -0.24,-1.08 0,-0.76 0.48,-0.96 2.36,-1.08 l 0,-2.16 -11.84,0 0,2.16 c 1.56,0.08 1.96,0.400001 2.56,2.12 l 1.44,4.52 -3.2,10.04 -4.64,-14.32 c -0.24,-0.68 -0.32,-1.080001 -0.32,-1.36 0,-0.72 0.48,-0.92 2.36,-1 l 0,-2.16 -12.4,0 0,2.16 0.08,0 c 1.8,0 2.32,0.400002 2.96,2.32 l 8.16,24.999995 3,0 5.28,-16.279995 5,16.279995 2.92,0 6.96,-21.959995 c 1.16,-3.959996 1.92,-4.880001 4.32,-5.36 l 0,-2.16 -10.08,0 0,2.16 c 1.16,0.04 1.72,0.12 2.24,0.36 0.84,0.399999 1.36,1.240001 1.36,2.2 0,0.559999 -0.08,1.000001 -0.52,2.44 l -3.48,11.4"
         style="text-align:center;text-anchor:middle;font-family:Century Schoolbook L;-inkscape-font-specification:Century Schoolbook L Bold"
         id="path3117" />
      <path
         d="m 501.675,96.228625 c -2.08,0 -3.76,1.680002 -3.76,3.76 0,2.039995 1.68,3.759995 3.72,3.759995 2.12,0 3.8,-1.68 3.8,-3.759995 0,-2.079998 -1.68,-3.76 -3.76,-3.76"
         style="text-align:center;text-anchor:middle;font-family:Century Schoolbook L;-inkscape-font-specification:Century Schoolbook L Bold"
         id="path3119" />
      <path
         d="m 517.59875,74.268625 -10.08,0 0,2.2 c 1.8,0.04 3.24,0.800001 4.24,2.24 l 0,15.76 c 0,3.519996 -0.2,4.520001 -1.04,5.4 -0.64,0.679995 -1.56,0.999995 -3.28,1.079995 l 0,2.16 11.4,0 0,-2.16 c -1.72,-0.08 -2.72,-0.4 -3.36,-1.079995 -0.84,-0.879999 -1.04,-1.880004 -1.04,-5.4 l 0,-13.16 18.6,22.119995 2.68,0 0,-20.479995 c 0,-3.559997 0.2,-4.560001 1.04,-5.44 0.64,-0.68 1.76,-1.04 3.36,-1.08 l 0,-2.16 -11.4,0 0,2.16 c 1.56,0.04 2.64,0.4 3.28,1.08 0.84,0.879999 1.04,1.920003 1.04,5.44 l 0,9.4 -15.44,-18.08"
         style="text-align:center;text-anchor:middle;font-family:Century Schoolbook L;-inkscape-font-specification:Century Schoolbook L Bold"
         id="path3121" />
      <path
         d="m 545.30812,96.228625 c -2.08,0 -3.76,1.680002 -3.76,3.76 0,2.039995 1.68,3.759995 3.72,3.759995 2.12,0 3.8,-1.68 3.8,-3.759995 0,-2.079998 -1.68,-3.76 -3.76,-3.76"
         style="text-align:center;text-anchor:middle;font-family:Century Schoolbook L;-inkscape-font-specification:Century Schoolbook L Bold"
         id="path3123" />
      <path
         d="m 565.75188,89.628625 5.6,9.16 c 0.32,0.559999 0.48,0.92 0.48,1.279995 0,0.64 -0.88001,0.92 -2.72,0.92 l -0.52,0 0,2.16 14.56,0 0,-2.16 c -2.2,-0.12 -2.36001,-0.2 -4.2,-3.079995 l -8.32,-13.28 3.32,-3.48 c 3.47999,-3.399997 5.48,-4.56 8.12,-4.72 l 0,-2.16 -13.48,0 0,2.16 0.96,0 c 1.95999,0 3,0.480001 3,1.4 0,0.439999 -0.60001,1.400001 -1.32,2.2 l -8.84,9.36 0,-9.36 c 0,-2.519998 0,-2.680001 0.28,-3 0.36,-0.44 1.24,-0.6 3.32,-0.6 l 0.6,0 0,-2.16 -15.56,0 0,2.16 0.6,0 c 2.07999,0 2.92,0.16 3.28,0.6 0.28,0.319999 0.28,0.480002 0.28,3 l 0,17.36 c 0,2.519997 0,2.680005 -0.28,2.999995 -0.36,0.44 -1.20001,0.6 -3.28,0.6 l -0.6,0 0,2.16 15.56,0 0,-2.16 -0.6,0 c -2.08,0 -2.96,-0.16 -3.32,-0.6 -0.28,-0.31999 -0.28,-0.479998 -0.28,-2.999995 l 0,-4.24 3.36,-3.52"
         style="text-align:center;text-anchor:middle;font-family:Century Schoolbook L;-inkscape-font-specification:Century Schoolbook L Bold"
         id="path3125" />
      <path
         d="m 588.16,96.228625 c -2.08,0 -3.76,1.680002 -3.76,3.76 0,2.039995 1.68,3.759995 3.72,3.759995 2.11999,0 3.8,-1.68 3.8,-3.759995 0,-2.079998 -1.68001,-3.76 -3.76,-3.76"
         style="text-align:center;text-anchor:middle;font-family:Century Schoolbook L;-inkscape-font-specification:Century Schoolbook L Bold"
         id="path3127" />
    </g>
  </g>
</svg>
